<svg width="709" height="150" viewBox="0 0 709 150" fill="none" xmlns="http://www.w3.org/2000/svg">
<path d="M78.8135 73.768H121.886V79.144C121.886 85.2027 120.862 90.856 118.814 96.104C116.808 101.352 113.928 105.96 110.174 109.928C106.419 113.896 101.939 116.989 96.7335 119.208C91.5282 121.427 85.7682 122.536 79.4535 122.536C72.9255 122.536 66.9948 121.427 61.6615 119.208C56.3708 116.947 51.8055 113.811 47.9655 109.8C44.1255 105.789 41.1815 101.139 39.1335 95.848C37.0855 90.5147 36.0615 84.7973 36.0615 78.696C36.0615 72.6373 37.0855 66.9627 39.1335 61.672C41.1815 56.3387 44.1255 51.688 47.9655 47.72C51.8055 43.7093 56.3708 40.5947 61.6615 38.376C66.9948 36.1147 72.9255 34.984 79.4535 34.984C84.7868 34.984 89.4802 35.56 93.5335 36.712C97.6295 37.864 101.15 39.4 104.094 41.32C107.038 43.24 109.534 45.352 111.582 47.656C113.63 49.9173 115.336 52.136 116.702 54.312L98.5255 62.888C96.7762 60.2 94.3868 57.8533 91.3575 55.848C88.3708 53.8427 84.4028 52.84 79.4535 52.84C75.9975 52.84 72.8188 53.5227 69.9175 54.888C67.0588 56.2533 64.5842 58.1307 62.4935 60.52C60.4028 62.8667 58.7815 65.6187 57.6295 68.776C56.5202 71.8907 55.9655 75.1973 55.9655 78.696C55.9655 82.2373 56.5202 85.5653 57.6295 88.68C58.7815 91.7947 60.4028 94.5467 62.4935 96.936C64.5842 99.3253 67.0588 101.203 69.9175 102.568C72.8188 103.891 75.9975 104.552 79.4535 104.552C82.4828 104.552 85.2348 104.168 87.7095 103.4C90.1842 102.632 92.3175 101.523 94.1095 100.072C95.9442 98.6213 97.3735 96.9147 98.3975 94.952C99.4642 92.9467 100.104 90.7493 100.318 88.36H78.8135V73.768ZM173.707 121V112.488C173.323 113.341 172.341 114.579 170.763 116.2C169.227 117.821 167.179 119.293 164.619 120.616C162.059 121.896 159.072 122.536 155.659 122.536C150.539 122.536 146.059 121.299 142.219 118.824C138.379 116.307 135.392 112.957 133.259 108.776C131.125 104.552 130.059 99.88 130.059 94.76C130.059 89.64 131.125 84.9893 133.259 80.808C135.392 76.584 138.379 73.2133 142.219 70.696C146.059 68.1787 150.539 66.92 155.659 66.92C158.944 66.92 161.824 67.4533 164.299 68.52C166.773 69.544 168.779 70.7813 170.315 72.232C171.851 73.64 172.917 74.9413 173.515 76.136V68.456H192.843V121H173.707ZM149.131 94.76C149.131 97.1493 149.685 99.304 150.795 101.224C151.904 103.101 153.376 104.573 155.211 105.64C157.088 106.707 159.157 107.24 161.419 107.24C163.765 107.24 165.835 106.707 167.627 105.64C169.419 104.573 170.827 103.101 171.851 101.224C172.917 99.304 173.451 97.1493 173.451 94.76C173.451 92.3707 172.917 90.2373 171.851 88.36C170.827 86.44 169.419 84.9467 167.627 83.88C165.835 82.7707 163.765 82.216 161.419 82.216C159.157 82.216 157.088 82.7707 155.211 83.88C153.376 84.9467 151.904 86.44 150.795 88.36C149.685 90.2373 149.131 92.3707 149.131 94.76ZM223.621 92.776C223.621 96.9573 224.41 100.307 225.989 102.824C227.567 105.299 230.213 106.536 233.925 106.536C237.722 106.536 240.389 105.299 241.925 102.824C243.503 100.307 244.293 96.9573 244.293 92.776V68.456H263.493V94.824C263.493 100.456 262.319 105.363 259.973 109.544C257.669 113.683 254.319 116.883 249.925 119.144C245.53 121.405 240.197 122.536 233.925 122.536C227.695 122.536 222.383 121.405 217.989 119.144C213.594 116.883 210.245 113.683 207.941 109.544C205.637 105.363 204.485 100.456 204.485 94.824V68.456H223.621V92.776ZM302.898 149.096C299.228 149.096 295.58 148.776 291.954 148.136C288.37 147.496 285.02 146.408 281.906 144.872C278.791 143.336 276.167 141.224 274.034 138.536L285.426 126.696C286.407 127.848 287.602 128.979 289.01 130.088C290.46 131.197 292.231 132.115 294.322 132.84C296.455 133.565 299.036 133.928 302.066 133.928C304.882 133.928 307.335 133.437 309.426 132.456C311.516 131.475 313.138 130.045 314.29 128.168C315.484 126.291 316.082 124.008 316.082 121.32V120.04H335.218V122.472C335.218 128.275 333.767 133.16 330.866 137.128C328.007 141.096 324.146 144.083 319.282 146.088C314.418 148.093 308.956 149.096 302.898 149.096ZM316.082 121V112.488C315.698 113.341 314.716 114.579 313.138 116.2C311.602 117.821 309.554 119.293 306.994 120.616C304.434 121.896 301.447 122.536 298.034 122.536C292.914 122.536 288.434 121.299 284.594 118.824C280.754 116.307 277.767 112.957 275.634 108.776C273.5 104.552 272.434 99.88 272.434 94.76C272.434 89.64 273.5 84.9893 275.634 80.808C277.767 76.584 280.754 73.2133 284.594 70.696C288.434 68.1787 292.914 66.92 298.034 66.92C301.319 66.92 304.199 67.4533 306.674 68.52C309.148 69.544 311.154 70.7813 312.69 72.232C314.226 73.64 315.292 74.9413 315.89 76.136V68.456H335.218V121H316.082ZM291.506 94.76C291.506 97.1493 292.06 99.304 293.17 101.224C294.279 103.101 295.751 104.573 297.586 105.64C299.463 106.707 301.532 107.24 303.794 107.24C306.14 107.24 308.21 106.707 310.002 105.64C311.794 104.573 313.202 103.101 314.226 101.224C315.292 99.304 315.826 97.1493 315.826 94.76C315.826 92.3707 315.292 90.2373 314.226 88.36C313.202 86.44 311.794 84.9467 310.002 83.88C308.21 82.7707 306.14 82.216 303.794 82.216C301.532 82.216 299.463 82.7707 297.586 83.88C295.751 84.9467 294.279 86.44 293.17 88.36C292.06 90.2373 291.506 92.3707 291.506 94.76ZM363.177 98.856C363.305 100.733 363.902 102.397 364.969 103.848C366.035 105.299 367.507 106.451 369.385 107.304C371.305 108.115 373.566 108.52 376.169 108.52C378.643 108.52 380.862 108.264 382.825 107.752C384.83 107.24 386.558 106.6 388.009 105.832C389.502 105.064 390.654 104.275 391.465 103.464L399.017 115.496C397.95 116.648 396.435 117.779 394.473 118.888C392.553 119.955 390.014 120.829 386.857 121.512C383.699 122.195 379.71 122.536 374.889 122.536C369.086 122.536 363.923 121.448 359.401 119.272C354.878 117.096 351.315 113.896 348.713 109.672C346.11 105.448 344.809 100.285 344.809 94.184C344.809 89.064 345.918 84.456 348.137 80.36C350.398 76.2213 353.662 72.9573 357.929 70.568C362.195 68.136 367.337 66.92 373.353 66.92C379.07 66.92 384.019 67.9653 388.201 70.056C392.425 72.1467 395.667 75.2613 397.929 79.4C400.233 83.496 401.385 88.616 401.385 94.76C401.385 95.1013 401.363 95.784 401.321 96.808C401.321 97.832 401.278 98.5147 401.193 98.856H363.177ZM383.081 88.68C383.038 87.3147 382.675 85.9707 381.993 84.648C381.31 83.2827 380.286 82.1733 378.921 81.32C377.555 80.424 375.806 79.976 373.673 79.976C371.539 79.976 369.726 80.4027 368.233 81.256C366.782 82.0667 365.673 83.1333 364.905 84.456C364.137 85.7787 363.71 87.1867 363.625 88.68H383.081ZM445.378 36.52H476.097C481.516 36.52 486.402 37.48 490.754 39.4C495.106 41.2773 498.562 44.1573 501.122 48.04C503.724 51.88 505.026 56.7013 505.026 62.504C505.026 68.264 503.724 73.1707 501.122 77.224C498.562 81.2347 495.106 84.3067 490.754 86.44C486.402 88.5307 481.516 89.576 476.097 89.576H464.514V121H445.378V36.52ZM464.514 74.472H470.786C473.388 74.472 475.714 74.088 477.762 73.32C479.852 72.552 481.516 71.336 482.754 69.672C483.991 67.9653 484.61 65.7253 484.61 62.952C484.61 60.136 483.991 57.9173 482.754 56.296C481.516 54.632 479.852 53.4373 477.762 52.712C475.714 51.9867 473.388 51.624 470.786 51.624H464.514V74.472ZM537.941 122.536C532.181 122.536 527.061 121.363 522.581 119.016C518.143 116.627 514.645 113.363 512.085 109.224C509.567 105.043 508.309 100.264 508.309 94.888C508.309 89.512 509.567 84.7333 512.085 80.552C514.645 76.328 518.143 73 522.581 70.568C527.061 68.136 532.181 66.92 537.941 66.92C543.701 66.92 548.778 68.136 553.173 70.568C557.567 73 561.002 76.328 563.477 80.552C565.951 84.7333 567.189 89.512 567.189 94.888C567.189 100.264 565.951 105.043 563.477 109.224C561.002 113.363 557.567 116.627 553.173 119.016C548.778 121.363 543.701 122.536 537.941 122.536ZM537.941 106.536C540.159 106.536 542.079 106.045 543.701 105.064C545.322 104.083 546.581 102.696 547.477 100.904C548.373 99.112 548.821 97.0853 548.821 94.824C548.821 92.52 548.373 90.472 547.477 88.68C546.581 86.888 545.322 85.48 543.701 84.456C542.079 83.432 540.159 82.92 537.941 82.92C535.722 82.92 533.781 83.432 532.117 84.456C530.495 85.48 529.215 86.888 528.277 88.68C527.381 90.472 526.933 92.52 526.933 94.824C526.933 97.0853 527.381 99.112 528.277 100.904C529.215 102.696 530.495 104.083 532.117 105.064C533.781 106.045 535.722 106.536 537.941 106.536ZM600.866 66.92C604.322 66.92 607.479 67.2187 610.338 67.816C613.196 68.3707 615.586 69.0107 617.506 69.736C619.468 70.4613 620.727 71.0587 621.282 71.528L614.946 82.984C614.135 82.3867 612.62 81.6187 610.402 80.68C608.226 79.7413 605.794 79.272 603.106 79.272C601.058 79.272 599.33 79.592 597.922 80.232C596.514 80.8293 595.81 81.7893 595.81 83.112C595.81 84.4347 596.578 85.5013 598.114 86.312C599.692 87.08 601.954 87.7627 604.898 88.36C607.458 88.872 610.06 89.6827 612.706 90.792C615.351 91.9013 617.548 93.544 619.298 95.72C621.09 97.8533 621.986 100.712 621.986 104.296C621.986 107.965 621.196 110.995 619.618 113.384C618.039 115.773 615.948 117.629 613.346 118.952C610.743 120.275 607.927 121.192 604.898 121.704C601.868 122.259 598.924 122.536 596.066 122.536C592.055 122.536 588.556 122.173 585.57 121.448C582.626 120.723 580.236 119.891 578.402 118.952C576.567 118.013 575.287 117.267 574.562 116.712L580.834 103.912C581.943 104.851 583.756 105.917 586.274 107.112C588.791 108.264 591.458 108.84 594.274 108.84C597.004 108.84 599.116 108.435 600.61 107.624C602.103 106.813 602.85 105.747 602.85 104.424C602.85 103.357 602.487 102.504 601.762 101.864C601.036 101.224 600.012 100.669 598.69 100.2C597.367 99.7307 595.767 99.304 593.89 98.92C592.183 98.5787 590.37 98.0453 588.45 97.32C586.53 96.5947 584.716 95.6133 583.01 94.376C581.303 93.096 579.916 91.496 578.85 89.576C577.783 87.656 577.25 85.3307 577.25 82.6C577.25 79.1013 578.38 76.2 580.642 73.896C582.903 71.592 585.826 69.864 589.41 68.712C592.994 67.5173 596.812 66.92 600.866 66.92ZM626.959 68.456H635.919V46.888H655.183V68.456H666.959V84.456H655.183V99.112C655.183 101.288 655.503 103.059 656.143 104.424C656.783 105.747 657.956 106.408 659.663 106.408C660.815 106.408 661.796 106.152 662.607 105.64C663.417 105.128 663.908 104.787 664.079 104.616L670.735 118.44C670.436 118.696 669.497 119.165 667.919 119.848C666.383 120.531 664.42 121.149 662.031 121.704C659.641 122.259 656.975 122.536 654.031 122.536C648.783 122.536 644.452 121.064 641.039 118.12C637.625 115.133 635.919 110.547 635.919 104.36V84.456H626.959V68.456Z" fill="black"/>
<rect y="135" width="262" height="15" fill="black"/>
<rect x="353" y="135" width="356" height="15" fill="black"/>
<rect width="150" height="15" transform="matrix(0 -1 -1 0 15 150)" fill="black"/>
<rect x="15" width="694" height="15" fill="black"/>
<rect width="150" height="15" transform="matrix(0 -1 -1 0 709 150)" fill="black"/>
</svg>
